<mxfile host="app.diagrams.net" modified="2023-08-14T10:49:41.772Z" agent="Mozilla/5.0 (Windows NT 10.0; Win64; x64) AppleWebKit/537.36 (KHTML, like Gecko) Chrome/115.0.0.0 Safari/537.36" etag="-pRDSGlREswMMgg7IZcy" version="21.6.8" type="github">
  <diagram name="Page-1" id="yYdE8fevcW1kotKpUtS1">
    <mxGraphModel dx="2950" dy="658" grid="1" gridSize="10" guides="1" tooltips="1" connect="1" arrows="1" fold="1" page="0" pageScale="1" pageWidth="850" pageHeight="1100" math="0" shadow="0">
      <root>
        <mxCell id="0" />
        <mxCell id="1" parent="0" />
        <mxCell id="azzmEiPG0c4EjMa-7jpn-20" style="rounded=0;orthogonalLoop=1;jettySize=auto;html=1;entryX=0;entryY=0.3333333333333333;entryDx=0;entryDy=0;entryPerimeter=0;fontSize=12;startSize=8;endSize=8;endArrow=block;endFill=0;exitX=1;exitY=1;exitDx=0;exitDy=0;exitPerimeter=0;" edge="1" parent="1" source="azzmEiPG0c4EjMa-7jpn-1" target="azzmEiPG0c4EjMa-7jpn-2">
          <mxGeometry relative="1" as="geometry" />
        </mxCell>
        <mxCell id="azzmEiPG0c4EjMa-7jpn-23" style="edgeStyle=none;curved=1;rounded=0;orthogonalLoop=1;jettySize=auto;html=1;exitX=0.5;exitY=0.5;exitDx=0;exitDy=0;exitPerimeter=0;entryX=0;entryY=0.5;entryDx=0;entryDy=0;fontSize=12;startSize=8;endSize=8;endArrow=none;endFill=0;" edge="1" parent="1" source="azzmEiPG0c4EjMa-7jpn-1" target="azzmEiPG0c4EjMa-7jpn-22">
          <mxGeometry relative="1" as="geometry" />
        </mxCell>
        <mxCell id="azzmEiPG0c4EjMa-7jpn-1" value="Admin&lt;br&gt;" style="shape=umlActor;verticalLabelPosition=bottom;verticalAlign=top;html=1;outlineConnect=0;fontSize=16;" vertex="1" parent="1">
          <mxGeometry x="-329" y="758.5" width="30" height="60" as="geometry" />
        </mxCell>
        <mxCell id="azzmEiPG0c4EjMa-7jpn-2" value="User" style="shape=umlActor;verticalLabelPosition=bottom;verticalAlign=top;html=1;outlineConnect=0;fontSize=16;" vertex="1" parent="1">
          <mxGeometry x="-241" y="875" width="30" height="60" as="geometry" />
        </mxCell>
        <mxCell id="azzmEiPG0c4EjMa-7jpn-21" style="rounded=0;orthogonalLoop=1;jettySize=auto;html=1;exitX=0.5;exitY=0;exitDx=0;exitDy=0;exitPerimeter=0;fontSize=12;startSize=8;endSize=8;endArrow=block;endFill=0;" edge="1" parent="1" source="azzmEiPG0c4EjMa-7jpn-5" target="azzmEiPG0c4EjMa-7jpn-2">
          <mxGeometry relative="1" as="geometry" />
        </mxCell>
        <mxCell id="azzmEiPG0c4EjMa-7jpn-39" style="edgeStyle=none;curved=1;rounded=0;orthogonalLoop=1;jettySize=auto;html=1;exitX=0.5;exitY=0.5;exitDx=0;exitDy=0;exitPerimeter=0;entryX=0;entryY=0.5;entryDx=0;entryDy=0;fontSize=12;startSize=8;endSize=8;endArrow=none;endFill=0;" edge="1" parent="1" source="azzmEiPG0c4EjMa-7jpn-5" target="azzmEiPG0c4EjMa-7jpn-38">
          <mxGeometry relative="1" as="geometry" />
        </mxCell>
        <mxCell id="azzmEiPG0c4EjMa-7jpn-5" value="Employee" style="shape=umlActor;verticalLabelPosition=bottom;verticalAlign=top;html=1;outlineConnect=0;fontSize=16;" vertex="1" parent="1">
          <mxGeometry x="-329" y="1010" width="30" height="60" as="geometry" />
        </mxCell>
        <mxCell id="azzmEiPG0c4EjMa-7jpn-19" style="edgeStyle=none;curved=1;rounded=0;orthogonalLoop=1;jettySize=auto;html=1;exitX=0;exitY=0.5;exitDx=0;exitDy=0;fontSize=12;startSize=8;endSize=8;endArrow=none;endFill=0;" edge="1" parent="1" source="azzmEiPG0c4EjMa-7jpn-10" target="azzmEiPG0c4EjMa-7jpn-2">
          <mxGeometry relative="1" as="geometry" />
        </mxCell>
        <mxCell id="azzmEiPG0c4EjMa-7jpn-10" value="Log in" style="ellipse;whiteSpace=wrap;html=1;fontSize=16;" vertex="1" parent="1">
          <mxGeometry x="-20" y="880" width="100" height="50" as="geometry" />
        </mxCell>
        <mxCell id="azzmEiPG0c4EjMa-7jpn-17" style="edgeStyle=none;curved=1;rounded=0;orthogonalLoop=1;jettySize=auto;html=1;exitX=0.5;exitY=0;exitDx=0;exitDy=0;exitPerimeter=0;fontSize=12;startSize=8;endSize=8;endArrow=block;endFill=0;" edge="1" parent="1" source="azzmEiPG0c4EjMa-7jpn-12" target="azzmEiPG0c4EjMa-7jpn-5">
          <mxGeometry relative="1" as="geometry">
            <mxPoint x="-226" y="1330" as="sourcePoint" />
            <mxPoint x="-226" y="1130" as="targetPoint" />
          </mxGeometry>
        </mxCell>
        <mxCell id="azzmEiPG0c4EjMa-7jpn-12" value="HR-Employee&lt;br&gt;" style="shape=umlActor;verticalLabelPosition=bottom;verticalAlign=top;html=1;outlineConnect=0;fontSize=16;" vertex="1" parent="1">
          <mxGeometry x="-329" y="1230" width="30" height="60" as="geometry" />
        </mxCell>
        <mxCell id="azzmEiPG0c4EjMa-7jpn-13" value="Manage Employees" style="ellipse;whiteSpace=wrap;html=1;fontSize=16;" vertex="1" parent="1">
          <mxGeometry x="-120" y="1230" width="150" height="60" as="geometry" />
        </mxCell>
        <mxCell id="azzmEiPG0c4EjMa-7jpn-15" value="" style="endArrow=none;html=1;rounded=0;fontSize=12;startSize=8;endSize=8;curved=1;exitX=0.5;exitY=0.5;exitDx=0;exitDy=0;exitPerimeter=0;entryX=0;entryY=0.5;entryDx=0;entryDy=0;" edge="1" parent="1" source="azzmEiPG0c4EjMa-7jpn-12" target="azzmEiPG0c4EjMa-7jpn-13">
          <mxGeometry width="50" height="50" relative="1" as="geometry">
            <mxPoint x="-150" y="1260" as="sourcePoint" />
            <mxPoint x="-100" y="1210" as="targetPoint" />
          </mxGeometry>
        </mxCell>
        <mxCell id="azzmEiPG0c4EjMa-7jpn-22" value="Manage user" style="ellipse;whiteSpace=wrap;html=1;fontSize=16;" vertex="1" parent="1">
          <mxGeometry x="-70" y="690" width="120" height="57" as="geometry" />
        </mxCell>
        <mxCell id="azzmEiPG0c4EjMa-7jpn-32" style="edgeStyle=none;curved=1;rounded=0;orthogonalLoop=1;jettySize=auto;html=1;entryX=1;entryY=0;entryDx=0;entryDy=0;fontSize=12;startSize=8;endSize=10;endArrow=block;endFill=0;" edge="1" parent="1" source="azzmEiPG0c4EjMa-7jpn-29" target="azzmEiPG0c4EjMa-7jpn-13">
          <mxGeometry relative="1" as="geometry" />
        </mxCell>
        <mxCell id="azzmEiPG0c4EjMa-7jpn-29" value="Check attendance" style="ellipse;whiteSpace=wrap;html=1;fontSize=16;" vertex="1" parent="1">
          <mxGeometry y="1130" width="151" height="60" as="geometry" />
        </mxCell>
        <mxCell id="azzmEiPG0c4EjMa-7jpn-30" style="edgeStyle=none;curved=1;rounded=0;orthogonalLoop=1;jettySize=auto;html=1;exitX=0.5;exitY=1;exitDx=0;exitDy=0;fontSize=12;startSize=8;endSize=8;" edge="1" parent="1" source="azzmEiPG0c4EjMa-7jpn-13" target="azzmEiPG0c4EjMa-7jpn-13">
          <mxGeometry relative="1" as="geometry" />
        </mxCell>
        <mxCell id="azzmEiPG0c4EjMa-7jpn-35" style="edgeStyle=none;curved=1;rounded=0;orthogonalLoop=1;jettySize=auto;html=1;entryX=1;entryY=0.5;entryDx=0;entryDy=0;fontSize=12;startSize=8;endSize=10;endArrow=block;endFill=0;" edge="1" parent="1" source="azzmEiPG0c4EjMa-7jpn-34" target="azzmEiPG0c4EjMa-7jpn-13">
          <mxGeometry relative="1" as="geometry" />
        </mxCell>
        <mxCell id="azzmEiPG0c4EjMa-7jpn-34" value="Update employee information" style="ellipse;whiteSpace=wrap;html=1;fontSize=16;" vertex="1" parent="1">
          <mxGeometry x="151" y="1170" width="168" height="70" as="geometry" />
        </mxCell>
        <mxCell id="azzmEiPG0c4EjMa-7jpn-43" style="edgeStyle=none;orthogonalLoop=1;jettySize=auto;html=1;entryX=1;entryY=1;entryDx=0;entryDy=0;fontSize=12;startSize=8;endSize=10;endArrow=block;endFill=0;curved=1;targetPerimeterSpacing=1;" edge="1" parent="1" source="azzmEiPG0c4EjMa-7jpn-36" target="azzmEiPG0c4EjMa-7jpn-13">
          <mxGeometry relative="1" as="geometry" />
        </mxCell>
        <mxCell id="azzmEiPG0c4EjMa-7jpn-36" value="Create attendance report" style="ellipse;whiteSpace=wrap;html=1;fontSize=16;" vertex="1" parent="1">
          <mxGeometry x="110" y="1250" width="151" height="60" as="geometry" />
        </mxCell>
        <mxCell id="azzmEiPG0c4EjMa-7jpn-38" value="Mark attendance" style="ellipse;whiteSpace=wrap;html=1;fontSize=16;" vertex="1" parent="1">
          <mxGeometry x="-110" y="950" width="150" height="60" as="geometry" />
        </mxCell>
        <mxCell id="azzmEiPG0c4EjMa-7jpn-48" style="edgeStyle=none;curved=1;rounded=0;orthogonalLoop=1;jettySize=auto;html=1;exitX=0;exitY=1;exitDx=0;exitDy=0;entryX=1;entryY=0;entryDx=0;entryDy=0;fontSize=12;startSize=8;endSize=10;endArrow=block;endFill=0;" edge="1" parent="1" source="azzmEiPG0c4EjMa-7jpn-44" target="azzmEiPG0c4EjMa-7jpn-22">
          <mxGeometry relative="1" as="geometry" />
        </mxCell>
        <mxCell id="azzmEiPG0c4EjMa-7jpn-44" value="Create user" style="ellipse;whiteSpace=wrap;html=1;fontSize=16;" vertex="1" parent="1">
          <mxGeometry x="70" y="610" width="151" height="60" as="geometry" />
        </mxCell>
        <mxCell id="azzmEiPG0c4EjMa-7jpn-49" style="edgeStyle=none;curved=1;rounded=0;orthogonalLoop=1;jettySize=auto;html=1;fontSize=12;startSize=8;endSize=10;endArrow=block;endFill=0;" edge="1" parent="1" source="azzmEiPG0c4EjMa-7jpn-45" target="azzmEiPG0c4EjMa-7jpn-22">
          <mxGeometry relative="1" as="geometry" />
        </mxCell>
        <mxCell id="azzmEiPG0c4EjMa-7jpn-45" value="Delete user" style="ellipse;whiteSpace=wrap;html=1;fontSize=16;" vertex="1" parent="1">
          <mxGeometry x="140" y="687" width="151" height="60" as="geometry" />
        </mxCell>
        <mxCell id="azzmEiPG0c4EjMa-7jpn-51" style="edgeStyle=none;curved=1;rounded=0;orthogonalLoop=1;jettySize=auto;html=1;fontSize=12;startSize=8;endSize=8;endArrow=none;endFill=0;dashed=1;dashPattern=12 12;" edge="1" parent="1" source="azzmEiPG0c4EjMa-7jpn-50" target="azzmEiPG0c4EjMa-7jpn-10">
          <mxGeometry relative="1" as="geometry" />
        </mxCell>
        <mxCell id="azzmEiPG0c4EjMa-7jpn-50" value="Log out" style="ellipse;whiteSpace=wrap;html=1;fontSize=16;" vertex="1" parent="1">
          <mxGeometry x="212" y="880" width="100" height="50" as="geometry" />
        </mxCell>
        <mxCell id="azzmEiPG0c4EjMa-7jpn-56" style="edgeStyle=none;curved=1;rounded=0;orthogonalLoop=1;jettySize=auto;html=1;entryX=0.5;entryY=0.5;entryDx=0;entryDy=0;entryPerimeter=0;fontSize=12;startSize=8;endSize=8;endArrow=none;endFill=0;exitX=0;exitY=0.5;exitDx=0;exitDy=0;" edge="1" parent="1" source="azzmEiPG0c4EjMa-7jpn-55" target="azzmEiPG0c4EjMa-7jpn-5">
          <mxGeometry relative="1" as="geometry" />
        </mxCell>
        <mxCell id="azzmEiPG0c4EjMa-7jpn-55" value="View profile" style="ellipse;whiteSpace=wrap;html=1;fontSize=16;" vertex="1" parent="1">
          <mxGeometry x="-50" y="1030" width="160" height="60" as="geometry" />
        </mxCell>
        <mxCell id="azzmEiPG0c4EjMa-7jpn-58" style="edgeStyle=none;curved=1;rounded=0;orthogonalLoop=1;jettySize=auto;html=1;entryX=1;entryY=1;entryDx=0;entryDy=0;fontSize=12;startSize=8;endSize=10;endArrow=block;endFill=0;" edge="1" parent="1" source="azzmEiPG0c4EjMa-7jpn-57" target="azzmEiPG0c4EjMa-7jpn-22">
          <mxGeometry relative="1" as="geometry" />
        </mxCell>
        <mxCell id="azzmEiPG0c4EjMa-7jpn-57" value="Update role" style="ellipse;whiteSpace=wrap;html=1;fontSize=16;" vertex="1" parent="1">
          <mxGeometry x="70" y="770" width="151" height="60" as="geometry" />
        </mxCell>
        <mxCell id="azzmEiPG0c4EjMa-7jpn-60" value="Employee management" style="shape=umlFrame;whiteSpace=wrap;html=1;pointerEvents=0;fontSize=16;width=140;height=40;" vertex="1" parent="1">
          <mxGeometry x="-160" y="580" width="560" height="740" as="geometry" />
        </mxCell>
        <mxCell id="azzmEiPG0c4EjMa-7jpn-63" value="&lt;h1 style=&quot;border-color: var(--border-color);&quot;&gt;User&lt;/h1&gt;&lt;div&gt;- Log in&lt;/div&gt;&lt;div&gt;- Log out&lt;/div&gt;&lt;h1&gt;Admin&lt;/h1&gt;&lt;div&gt;-Log in&lt;/div&gt;&lt;div&gt;-Log out&lt;/div&gt;&lt;div&gt;- Manage user: Create user, Delete user, Update role&lt;br&gt;&lt;h1 style=&quot;border-color: var(--border-color);&quot;&gt;Employee&lt;/h1&gt;&lt;/div&gt;&lt;div&gt;- Log in&lt;/div&gt;&lt;div&gt;- Log out&lt;/div&gt;&lt;div&gt;- View profile&lt;/div&gt;&lt;div&gt;- Mark attendance&lt;/div&gt;&lt;div&gt;&lt;h1 style=&quot;border-color: var(--border-color);&quot;&gt;HR- Employee&lt;/h1&gt;&lt;/div&gt;&lt;div&gt;- Log in&lt;/div&gt;&lt;div&gt;- Log out&lt;/div&gt;&lt;div&gt;- Mark attendance&lt;/div&gt;&lt;div&gt;- View profile&lt;/div&gt;&lt;div&gt;- Manage employees: Check attendance, Update employee infomation, Create attendance report&lt;/div&gt;" style="text;html=1;strokeColor=none;fillColor=none;spacing=5;spacingTop=-20;whiteSpace=wrap;overflow=hidden;rounded=0;fontSize=16;" vertex="1" parent="1">
          <mxGeometry x="-860" y="650" width="410" height="620" as="geometry" />
        </mxCell>
      </root>
    </mxGraphModel>
  </diagram>
</mxfile>
